<?xml version="1.0" standalone="no"?>
<!DOCTYPE svg PUBLIC "-//W3C//DTD SVG 20010904//EN"
 "http://www.w3.org/TR/2001/REC-SVG-20010904/DTD/svg10.dtd">
<svg version="1.0" xmlns="http://www.w3.org/2000/svg"
 width="150.000000pt" height="165.000000pt" viewBox="0 0 150.000000 165.000000"
 preserveAspectRatio="xMidYMid meet">

<g transform="translate(0.000000,165.000000) scale(0.100000,-0.100000)"
fill="#000000" stroke="none">
<path d="M1295 1606 c-16 -7 -146 -127 -287 -265 -141 -138 -261 -251 -265
-251 -5 0 -64 57 -133 126 -69 69 -137 132 -152 140 -89 47 -208 -24 -208
-124 0 -28 8 -59 19 -78 10 -17 84 -98 165 -181 80 -83 146 -154 146 -159 0
-4 -117 -122 -260 -262 -144 -140 -267 -267 -275 -283 -21 -39 -19 -78 8 -129
38 -74 126 -102 193 -61 18 11 142 128 277 260 135 133 253 241 262 241 10 0
69 -54 131 -119 63 -65 131 -127 151 -136 131 -63 259 61 197 191 -9 18 -86
102 -171 184 l-155 151 265 264 c146 145 273 278 282 296 57 109 -78 247 -190
195z"/>
</g>
</svg>
